<svg xmlns="http://www.w3.org/2000/svg" width="900" height="560" viewBox="0 0 900 560" font-family="-apple-system,BlinkMacSystemFont,Segoe UI,Helvetica,Arial,sans-serif">
<defs>
    <linearGradient id="bg" x1="0" y1="0" x2="0" y2="1">
      <stop offset="0" stop-color="#0a1330"/><stop offset="1" stop-color="#050912"/>
    </linearGradient>
    <radialGradient id="glow" cx="50%" cy="50%" r="50%">
      <stop offset="0" stop-color="#3fd0ff" stop-opacity="0.9"/>
      <stop offset="1" stop-color="#3fd0ff" stop-opacity="0"/>
    </radialGradient>
  </defs>
<rect width="900" height="560" fill="url(#bg)"/>
<line x1="147.1" y1="58" x2="147.1" y2="526" stroke="#1c2a4a" stroke-width="1"/>
<text x="147.1" y="544" fill="#5f7196" font-size="11" text-anchor="middle">110°E</text>
<line x1="273.5" y1="58" x2="273.5" y2="526" stroke="#1c2a4a" stroke-width="1"/>
<text x="273.5" y="544" fill="#5f7196" font-size="11" text-anchor="middle">120°E</text>
<line x1="399.8" y1="58" x2="399.8" y2="526" stroke="#1c2a4a" stroke-width="1"/>
<text x="399.8" y="544" fill="#5f7196" font-size="11" text-anchor="middle">130°E</text>
<line x1="526.2" y1="58" x2="526.2" y2="526" stroke="#1c2a4a" stroke-width="1"/>
<text x="526.2" y="544" fill="#5f7196" font-size="11" text-anchor="middle">140°E</text>
<line x1="652.5" y1="58" x2="652.5" y2="526" stroke="#1c2a4a" stroke-width="1"/>
<text x="652.5" y="544" fill="#5f7196" font-size="11" text-anchor="middle">150°E</text>
<line x1="778.9" y1="58" x2="778.9" y2="526" stroke="#1c2a4a" stroke-width="1"/>
<text x="778.9" y="544" fill="#5f7196" font-size="11" text-anchor="middle">160°E</text>
<line x1="46" y1="444.6" x2="880" y2="444.6" stroke="#1c2a4a" stroke-width="1"/>
<text x="38" y="448.6" fill="#5f7196" font-size="11" text-anchor="end">10°N</text>
<line x1="46" y1="342.9" x2="880" y2="342.9" stroke="#1c2a4a" stroke-width="1"/>
<text x="38" y="346.9" fill="#5f7196" font-size="11" text-anchor="end">20°N</text>
<line x1="46" y1="241.1" x2="880" y2="241.1" stroke="#1c2a4a" stroke-width="1"/>
<text x="38" y="245.1" fill="#5f7196" font-size="11" text-anchor="end">30°N</text>
<line x1="46" y1="139.4" x2="880" y2="139.4" stroke="#1c2a4a" stroke-width="1"/>
<text x="38" y="143.4" fill="#5f7196" font-size="11" text-anchor="end">40°N</text>
<text x="185.0" y="200.4" fill="#42557a" font-size="13" font-weight="600" text-anchor="middle">中国</text>
<text x="286.1" y="302.2" fill="#42557a" font-size="13" font-weight="600" text-anchor="middle">台湾</text>
<text x="500.9" y="169.9" fill="#42557a" font-size="13" font-weight="600" text-anchor="middle">日本</text>
<text x="298.7" y="414.1" fill="#42557a" font-size="13" font-weight="600" text-anchor="middle">菲律宾</text>
<text x="361.9" y="169.9" fill="#42557a" font-size="13" font-weight="600" text-anchor="middle">朝鲜半岛</text>
<text x="109.2" y="383.6" fill="#42557a" font-size="13" font-weight="600" text-anchor="middle">越南</text>
<line x1="484.5" y1="438.5" x2="482.0" y2="438.5" stroke="#00D084" stroke-width="3" stroke-linecap="round" opacity="0.9"/>
<line x1="482.0" y1="438.5" x2="479.4" y2="437.5" stroke="#00D084" stroke-width="3" stroke-linecap="round" opacity="0.9"/>
<circle cx="484.5" cy="438.5" r="2.2" fill="#00D084" opacity="0.85"/>
<circle cx="482.0" cy="438.5" r="2.2" fill="#00D084" opacity="0.85"/>
<circle cx="479.4" cy="437.5" r="2.2" fill="#00D084" opacity="0.85"/>
<circle cx="479.4" cy="437.5" r="22" fill="url(#glow)"/>
<circle cx="479.4" cy="437.5" r="6" fill="#00D084" stroke="#fff" stroke-width="1.5"/>
<text x="491.4" y="427.5" fill="#fff" font-size="13" font-weight="700" text-anchor="start" paint-order="stroke" stroke="#050912" stroke-width="3">2611 海神</text>
<text x="491.4" y="442.5" fill="#00D084" font-size="11" font-weight="600" text-anchor="start" paint-order="stroke" stroke="#050912" stroke-width="3">热带风暴 · 18m/s · 998hPa</text>
<line x1="780.2" y1="434.4" x2="771.3" y2="429.3" stroke="#00D084" stroke-width="3" stroke-linecap="round" opacity="0.9"/>
<line x1="771.3" y1="429.3" x2="766.3" y2="428.3" stroke="#00D084" stroke-width="3" stroke-linecap="round" opacity="0.9"/>
<line x1="766.3" y1="428.3" x2="761.2" y2="427.3" stroke="#FFD500" stroke-width="3" stroke-linecap="round" opacity="0.9"/>
<line x1="761.2" y1="427.3" x2="756.2" y2="425.3" stroke="#FFD500" stroke-width="3" stroke-linecap="round" opacity="0.9"/>
<line x1="756.2" y1="425.3" x2="746.1" y2="421.2" stroke="#FFD500" stroke-width="3" stroke-linecap="round" opacity="0.9"/>
<line x1="746.1" y1="421.2" x2="738.5" y2="418.2" stroke="#FFD500" stroke-width="3" stroke-linecap="round" opacity="0.9"/>
<line x1="738.5" y1="418.2" x2="729.6" y2="417.1" stroke="#FFD500" stroke-width="3" stroke-linecap="round" opacity="0.9"/>
<line x1="729.6" y1="417.1" x2="719.5" y2="414.1" stroke="#FF8C00" stroke-width="3" stroke-linecap="round" opacity="0.9"/>
<line x1="719.5" y1="414.1" x2="713.2" y2="415.1" stroke="#FF8C00" stroke-width="3" stroke-linecap="round" opacity="0.9"/>
<line x1="713.2" y1="415.1" x2="705.6" y2="415.1" stroke="#FF3B30" stroke-width="3" stroke-linecap="round" opacity="0.9"/>
<line x1="705.6" y1="415.1" x2="698.0" y2="415.1" stroke="#FF3B30" stroke-width="3" stroke-linecap="round" opacity="0.9"/>
<line x1="698.0" y1="415.1" x2="693.0" y2="416.1" stroke="#FF3B30" stroke-width="3" stroke-linecap="round" opacity="0.9"/>
<line x1="693.0" y1="416.1" x2="687.9" y2="417.1" stroke="#FF3B30" stroke-width="3" stroke-linecap="round" opacity="0.9"/>
<line x1="687.9" y1="417.1" x2="681.6" y2="417.1" stroke="#C724B1" stroke-width="3" stroke-linecap="round" opacity="0.9"/>
<line x1="681.6" y1="417.1" x2="675.3" y2="417.1" stroke="#C724B1" stroke-width="3" stroke-linecap="round" opacity="0.9"/>
<line x1="675.3" y1="417.1" x2="672.8" y2="418.2" stroke="#C724B1" stroke-width="3" stroke-linecap="round" opacity="0.9"/>
<line x1="672.8" y1="418.2" x2="669.0" y2="418.2" stroke="#C724B1" stroke-width="3" stroke-linecap="round" opacity="0.9"/>
<line x1="669.0" y1="418.2" x2="663.9" y2="419.2" stroke="#C724B1" stroke-width="3" stroke-linecap="round" opacity="0.9"/>
<line x1="663.9" y1="419.2" x2="661.4" y2="419.2" stroke="#C724B1" stroke-width="3" stroke-linecap="round" opacity="0.9"/>
<line x1="661.4" y1="419.2" x2="656.3" y2="418.2" stroke="#C724B1" stroke-width="3" stroke-linecap="round" opacity="0.9"/>
<line x1="656.3" y1="418.2" x2="651.3" y2="417.1" stroke="#C724B1" stroke-width="3" stroke-linecap="round" opacity="0.9"/>
<line x1="651.3" y1="417.1" x2="647.5" y2="417.1" stroke="#C724B1" stroke-width="3" stroke-linecap="round" opacity="0.9"/>
<line x1="647.5" y1="417.1" x2="642.4" y2="416.1" stroke="#C724B1" stroke-width="3" stroke-linecap="round" opacity="0.9"/>
<line x1="642.4" y1="416.1" x2="639.9" y2="416.1" stroke="#C724B1" stroke-width="3" stroke-linecap="round" opacity="0.9"/>
<line x1="639.9" y1="416.1" x2="636.1" y2="413.1" stroke="#C724B1" stroke-width="3" stroke-linecap="round" opacity="0.9"/>
<line x1="636.1" y1="413.1" x2="629.8" y2="410.0" stroke="#C724B1" stroke-width="3" stroke-linecap="round" opacity="0.9"/>
<line x1="629.8" y1="410.0" x2="623.5" y2="409.0" stroke="#C724B1" stroke-width="3" stroke-linecap="round" opacity="0.9"/>
<line x1="623.5" y1="409.0" x2="615.9" y2="407.0" stroke="#C724B1" stroke-width="3" stroke-linecap="round" opacity="0.9"/>
<line x1="615.9" y1="407.0" x2="609.6" y2="407.0" stroke="#C724B1" stroke-width="3" stroke-linecap="round" opacity="0.9"/>
<line x1="609.6" y1="407.0" x2="604.5" y2="404.9" stroke="#C724B1" stroke-width="3" stroke-linecap="round" opacity="0.9"/>
<line x1="604.5" y1="404.9" x2="598.2" y2="402.9" stroke="#C724B1" stroke-width="3" stroke-linecap="round" opacity="0.9"/>
<line x1="598.2" y1="402.9" x2="590.6" y2="400.9" stroke="#C724B1" stroke-width="3" stroke-linecap="round" opacity="0.9"/>
<line x1="590.6" y1="400.9" x2="584.3" y2="397.8" stroke="#C724B1" stroke-width="3" stroke-linecap="round" opacity="0.9"/>
<line x1="584.3" y1="397.8" x2="579.3" y2="395.8" stroke="#C724B1" stroke-width="3" stroke-linecap="round" opacity="0.9"/>
<line x1="579.3" y1="395.8" x2="569.1" y2="392.7" stroke="#C724B1" stroke-width="3" stroke-linecap="round" opacity="0.9"/>
<line x1="569.1" y1="392.7" x2="561.6" y2="389.7" stroke="#C724B1" stroke-width="3" stroke-linecap="round" opacity="0.9"/>
<line x1="561.6" y1="389.7" x2="551.5" y2="386.6" stroke="#C724B1" stroke-width="3" stroke-linecap="round" opacity="0.9"/>
<line x1="551.5" y1="386.6" x2="541.3" y2="385.6" stroke="#C724B1" stroke-width="3" stroke-linecap="round" opacity="0.9"/>
<line x1="541.3" y1="385.6" x2="533.8" y2="383.6" stroke="#C724B1" stroke-width="3" stroke-linecap="round" opacity="0.9"/>
<line x1="533.8" y1="383.6" x2="524.9" y2="381.5" stroke="#C724B1" stroke-width="3" stroke-linecap="round" opacity="0.9"/>
<line x1="524.9" y1="381.5" x2="516.1" y2="380.5" stroke="#C724B1" stroke-width="3" stroke-linecap="round" opacity="0.9"/>
<line x1="516.1" y1="380.5" x2="506.0" y2="378.5" stroke="#C724B1" stroke-width="3" stroke-linecap="round" opacity="0.9"/>
<line x1="506.0" y1="378.5" x2="497.1" y2="376.4" stroke="#C724B1" stroke-width="3" stroke-linecap="round" opacity="0.9"/>
<line x1="497.1" y1="376.4" x2="483.2" y2="375.4" stroke="#C724B1" stroke-width="3" stroke-linecap="round" opacity="0.9"/>
<line x1="483.2" y1="375.4" x2="475.6" y2="375.4" stroke="#C724B1" stroke-width="3" stroke-linecap="round" opacity="0.9"/>
<line x1="475.6" y1="375.4" x2="465.5" y2="375.4" stroke="#C724B1" stroke-width="3" stroke-linecap="round" opacity="0.9"/>
<line x1="465.5" y1="375.4" x2="461.7" y2="375.4" stroke="#C724B1" stroke-width="3" stroke-linecap="round" opacity="0.9"/>
<line x1="461.7" y1="375.4" x2="451.6" y2="374.4" stroke="#C724B1" stroke-width="3" stroke-linecap="round" opacity="0.9"/>
<line x1="451.6" y1="374.4" x2="444.0" y2="374.4" stroke="#C724B1" stroke-width="3" stroke-linecap="round" opacity="0.9"/>
<line x1="444.0" y1="374.4" x2="439.0" y2="374.4" stroke="#C724B1" stroke-width="3" stroke-linecap="round" opacity="0.9"/>
<line x1="439.0" y1="374.4" x2="431.4" y2="372.4" stroke="#C724B1" stroke-width="3" stroke-linecap="round" opacity="0.9"/>
<line x1="431.4" y1="372.4" x2="423.8" y2="370.3" stroke="#C724B1" stroke-width="3" stroke-linecap="round" opacity="0.9"/>
<line x1="423.8" y1="370.3" x2="417.5" y2="368.3" stroke="#C724B1" stroke-width="3" stroke-linecap="round" opacity="0.9"/>
<line x1="417.5" y1="368.3" x2="411.2" y2="366.3" stroke="#C724B1" stroke-width="3" stroke-linecap="round" opacity="0.9"/>
<line x1="411.2" y1="366.3" x2="406.1" y2="364.2" stroke="#C724B1" stroke-width="3" stroke-linecap="round" opacity="0.9"/>
<line x1="406.1" y1="364.2" x2="399.8" y2="360.2" stroke="#C724B1" stroke-width="3" stroke-linecap="round" opacity="0.9"/>
<line x1="399.8" y1="360.2" x2="393.5" y2="359.1" stroke="#C724B1" stroke-width="3" stroke-linecap="round" opacity="0.9"/>
<line x1="393.5" y1="359.1" x2="385.9" y2="356.1" stroke="#C724B1" stroke-width="3" stroke-linecap="round" opacity="0.9"/>
<line x1="385.9" y1="356.1" x2="385.9" y2="356.1" stroke="#C724B1" stroke-width="3" stroke-linecap="round" opacity="0.9"/>
<line x1="385.9" y1="356.1" x2="384.7" y2="355.1" stroke="#FF3B30" stroke-width="3" stroke-linecap="round" opacity="0.9"/>
<line x1="384.7" y1="355.1" x2="380.9" y2="349.0" stroke="#FF3B30" stroke-width="3" stroke-linecap="round" opacity="0.9"/>
<line x1="380.9" y1="349.0" x2="377.1" y2="343.9" stroke="#FF3B30" stroke-width="3" stroke-linecap="round" opacity="0.9"/>
<line x1="377.1" y1="343.9" x2="374.5" y2="338.8" stroke="#FF3B30" stroke-width="3" stroke-linecap="round" opacity="0.9"/>
<line x1="374.5" y1="338.8" x2="369.5" y2="334.7" stroke="#FF3B30" stroke-width="3" stroke-linecap="round" opacity="0.9"/>
<line x1="369.5" y1="334.7" x2="365.7" y2="331.7" stroke="#FF8C00" stroke-width="3" stroke-linecap="round" opacity="0.9"/>
<line x1="365.7" y1="331.7" x2="360.6" y2="324.6" stroke="#FF8C00" stroke-width="3" stroke-linecap="round" opacity="0.9"/>
<line x1="360.6" y1="324.6" x2="359.4" y2="323.5" stroke="#FF8C00" stroke-width="3" stroke-linecap="round" opacity="0.9"/>
<line x1="359.4" y1="323.5" x2="358.1" y2="321.5" stroke="#FF8C00" stroke-width="3" stroke-linecap="round" opacity="0.9"/>
<line x1="358.1" y1="321.5" x2="356.9" y2="320.5" stroke="#FF8C00" stroke-width="3" stroke-linecap="round" opacity="0.9"/>
<line x1="356.9" y1="320.5" x2="354.3" y2="318.5" stroke="#FF8C00" stroke-width="3" stroke-linecap="round" opacity="0.9"/>
<line x1="354.3" y1="318.5" x2="351.8" y2="316.4" stroke="#FF8C00" stroke-width="3" stroke-linecap="round" opacity="0.9"/>
<line x1="351.8" y1="316.4" x2="351.8" y2="315.4" stroke="#FF8C00" stroke-width="3" stroke-linecap="round" opacity="0.9"/>
<line x1="351.8" y1="315.4" x2="349.3" y2="314.4" stroke="#FF8C00" stroke-width="3" stroke-linecap="round" opacity="0.9"/>
<line x1="349.3" y1="314.4" x2="348.0" y2="312.3" stroke="#FF8C00" stroke-width="3" stroke-linecap="round" opacity="0.9"/>
<line x1="348.0" y1="312.3" x2="346.7" y2="311.3" stroke="#FF8C00" stroke-width="3" stroke-linecap="round" opacity="0.9"/>
<line x1="346.7" y1="311.3" x2="344.2" y2="309.3" stroke="#FF3B30" stroke-width="3" stroke-linecap="round" opacity="0.9"/>
<line x1="344.2" y1="309.3" x2="343.0" y2="307.3" stroke="#FF3B30" stroke-width="3" stroke-linecap="round" opacity="0.9"/>
<line x1="343.0" y1="307.3" x2="340.4" y2="305.2" stroke="#FF3B30" stroke-width="3" stroke-linecap="round" opacity="0.9"/>
<line x1="340.4" y1="305.2" x2="337.9" y2="303.2" stroke="#FF3B30" stroke-width="3" stroke-linecap="round" opacity="0.9"/>
<line x1="337.9" y1="303.2" x2="337.9" y2="302.2" stroke="#FF3B30" stroke-width="3" stroke-linecap="round" opacity="0.9"/>
<line x1="337.9" y1="302.2" x2="336.6" y2="300.1" stroke="#FF3B30" stroke-width="3" stroke-linecap="round" opacity="0.9"/>
<line x1="336.6" y1="300.1" x2="335.4" y2="298.1" stroke="#FF3B30" stroke-width="3" stroke-linecap="round" opacity="0.9"/>
<line x1="335.4" y1="298.1" x2="334.1" y2="295.1" stroke="#FF3B30" stroke-width="3" stroke-linecap="round" opacity="0.9"/>
<line x1="334.1" y1="295.1" x2="331.6" y2="293.0" stroke="#FF3B30" stroke-width="3" stroke-linecap="round" opacity="0.9"/>
<line x1="331.6" y1="293.0" x2="330.3" y2="290.0" stroke="#FF3B30" stroke-width="3" stroke-linecap="round" opacity="0.9"/>
<line x1="330.3" y1="290.0" x2="329.1" y2="286.9" stroke="#FF3B30" stroke-width="3" stroke-linecap="round" opacity="0.9"/>
<line x1="329.1" y1="286.9" x2="325.3" y2="284.9" stroke="#FF8C00" stroke-width="3" stroke-linecap="round" opacity="0.9"/>
<line x1="325.3" y1="284.9" x2="318.9" y2="277.8" stroke="#FF8C00" stroke-width="3" stroke-linecap="round" opacity="0.9"/>
<line x1="318.9" y1="277.8" x2="318.9" y2="277.8" stroke="#FF8C00" stroke-width="3" stroke-linecap="round" opacity="0.9"/>
<line x1="318.9" y1="277.8" x2="315.2" y2="275.7" stroke="#FF8C00" stroke-width="3" stroke-linecap="round" opacity="0.9"/>
<line x1="315.2" y1="275.7" x2="311.4" y2="273.7" stroke="#FF8C00" stroke-width="3" stroke-linecap="round" opacity="0.9"/>
<line x1="311.4" y1="273.7" x2="307.6" y2="271.7" stroke="#FF8C00" stroke-width="3" stroke-linecap="round" opacity="0.9"/>
<line x1="307.6" y1="271.7" x2="303.8" y2="269.6" stroke="#FF8C00" stroke-width="3" stroke-linecap="round" opacity="0.9"/>
<line x1="303.8" y1="269.6" x2="301.3" y2="269.6" stroke="#FF8C00" stroke-width="3" stroke-linecap="round" opacity="0.9"/>
<line x1="301.3" y1="269.6" x2="298.7" y2="269.6" stroke="#FF8C00" stroke-width="3" stroke-linecap="round" opacity="0.9"/>
<line x1="298.7" y1="269.6" x2="297.5" y2="267.6" stroke="#FF8C00" stroke-width="3" stroke-linecap="round" opacity="0.9"/>
<line x1="297.5" y1="267.6" x2="294.9" y2="265.5" stroke="#FF8C00" stroke-width="3" stroke-linecap="round" opacity="0.9"/>
<line x1="294.9" y1="265.5" x2="292.4" y2="263.5" stroke="#FF8C00" stroke-width="3" stroke-linecap="round" opacity="0.9"/>
<line x1="292.4" y1="263.5" x2="291.1" y2="261.5" stroke="#FF8C00" stroke-width="3" stroke-linecap="round" opacity="0.9"/>
<line x1="291.1" y1="261.5" x2="287.4" y2="258.4" stroke="#FF8C00" stroke-width="3" stroke-linecap="round" opacity="0.9"/>
<line x1="287.4" y1="258.4" x2="283.6" y2="256.4" stroke="#FF8C00" stroke-width="3" stroke-linecap="round" opacity="0.9"/>
<line x1="283.6" y1="256.4" x2="281.0" y2="255.4" stroke="#FF8C00" stroke-width="3" stroke-linecap="round" opacity="0.9"/>
<line x1="281.0" y1="255.4" x2="278.5" y2="254.4" stroke="#FF8C00" stroke-width="3" stroke-linecap="round" opacity="0.9"/>
<line x1="278.5" y1="254.4" x2="276.0" y2="251.3" stroke="#FF8C00" stroke-width="3" stroke-linecap="round" opacity="0.9"/>
<line x1="276.0" y1="251.3" x2="273.5" y2="248.3" stroke="#FFD500" stroke-width="3" stroke-linecap="round" opacity="0.9"/>
<line x1="273.5" y1="248.3" x2="272.2" y2="246.2" stroke="#FFD500" stroke-width="3" stroke-linecap="round" opacity="0.9"/>
<line x1="272.2" y1="246.2" x2="270.9" y2="243.2" stroke="#FFD500" stroke-width="3" stroke-linecap="round" opacity="0.9"/>
<line x1="270.9" y1="243.2" x2="270.9" y2="242.1" stroke="#FFD500" stroke-width="3" stroke-linecap="round" opacity="0.9"/>
<line x1="270.9" y1="242.1" x2="267.1" y2="239.1" stroke="#FFD500" stroke-width="3" stroke-linecap="round" opacity="0.9"/>
<line x1="267.1" y1="239.1" x2="264.6" y2="238.1" stroke="#FFD500" stroke-width="3" stroke-linecap="round" opacity="0.9"/>
<line x1="264.6" y1="238.1" x2="262.1" y2="235.0" stroke="#FFD500" stroke-width="3" stroke-linecap="round" opacity="0.9"/>
<line x1="262.1" y1="235.0" x2="259.6" y2="234.0" stroke="#FFD500" stroke-width="3" stroke-linecap="round" opacity="0.9"/>
<line x1="259.6" y1="234.0" x2="258.3" y2="232.0" stroke="#FFD500" stroke-width="3" stroke-linecap="round" opacity="0.9"/>
<line x1="258.3" y1="232.0" x2="255.8" y2="229.9" stroke="#FFD500" stroke-width="3" stroke-linecap="round" opacity="0.9"/>
<line x1="255.8" y1="229.9" x2="254.5" y2="228.9" stroke="#00D084" stroke-width="3" stroke-linecap="round" opacity="0.9"/>
<line x1="254.5" y1="228.9" x2="253.2" y2="226.9" stroke="#00D084" stroke-width="3" stroke-linecap="round" opacity="0.9"/>
<line x1="253.2" y1="226.9" x2="252.0" y2="226.9" stroke="#00D084" stroke-width="3" stroke-linecap="round" opacity="0.9"/>
<line x1="252.0" y1="226.9" x2="250.7" y2="224.9" stroke="#00D084" stroke-width="3" stroke-linecap="round" opacity="0.9"/>
<line x1="250.7" y1="224.9" x2="248.2" y2="223.8" stroke="#00D084" stroke-width="3" stroke-linecap="round" opacity="0.9"/>
<line x1="248.2" y1="223.8" x2="248.2" y2="222.8" stroke="#00D084" stroke-width="3" stroke-linecap="round" opacity="0.9"/>
<line x1="248.2" y1="222.8" x2="248.2" y2="221.8" stroke="#00D084" stroke-width="3" stroke-linecap="round" opacity="0.9"/>
<line x1="248.2" y1="221.8" x2="248.2" y2="221.8" stroke="#00D084" stroke-width="3" stroke-linecap="round" opacity="0.9"/>
<line x1="248.2" y1="221.8" x2="246.9" y2="220.8" stroke="#00D084" stroke-width="3" stroke-linecap="round" opacity="0.9"/>
<line x1="246.9" y1="220.8" x2="245.7" y2="219.8" stroke="#00D084" stroke-width="3" stroke-linecap="round" opacity="0.9"/>
<line x1="245.7" y1="219.8" x2="244.4" y2="218.7" stroke="#00D084" stroke-width="3" stroke-linecap="round" opacity="0.9"/>
<line x1="244.4" y1="218.7" x2="245.7" y2="215.7" stroke="#00D084" stroke-width="3" stroke-linecap="round" opacity="0.9"/>
<line x1="245.7" y1="215.7" x2="244.4" y2="214.7" stroke="#00D084" stroke-width="3" stroke-linecap="round" opacity="0.9"/>
<line x1="244.4" y1="214.7" x2="245.7" y2="212.6" stroke="#00D084" stroke-width="3" stroke-linecap="round" opacity="0.9"/>
<line x1="245.7" y1="212.6" x2="245.7" y2="210.6" stroke="#00D084" stroke-width="3" stroke-linecap="round" opacity="0.9"/>
<line x1="245.7" y1="210.6" x2="245.7" y2="207.6" stroke="#00D084" stroke-width="3" stroke-linecap="round" opacity="0.9"/>
<line x1="245.7" y1="207.6" x2="245.7" y2="207.6" stroke="#00D084" stroke-width="3" stroke-linecap="round" opacity="0.9"/>
<line x1="245.7" y1="207.6" x2="248.2" y2="204.5" stroke="#00D084" stroke-width="3" stroke-linecap="round" opacity="0.9"/>
<line x1="248.2" y1="204.5" x2="248.2" y2="204.5" stroke="#00D084" stroke-width="3" stroke-linecap="round" opacity="0.9"/>
<line x1="248.2" y1="204.5" x2="248.2" y2="203.5" stroke="#00D084" stroke-width="3" stroke-linecap="round" opacity="0.9"/>
<line x1="248.2" y1="203.5" x2="249.4" y2="202.5" stroke="#00D084" stroke-width="3" stroke-linecap="round" opacity="0.9"/>
<line x1="249.4" y1="202.5" x2="249.4" y2="201.5" stroke="#00D084" stroke-width="3" stroke-linecap="round" opacity="0.9"/>
<line x1="249.4" y1="201.5" x2="250.7" y2="200.4" stroke="#00D084" stroke-width="3" stroke-linecap="round" opacity="0.9"/>
<line x1="250.7" y1="200.4" x2="250.7" y2="198.4" stroke="#00D084" stroke-width="3" stroke-linecap="round" opacity="0.9"/>
<line x1="250.7" y1="198.4" x2="250.7" y2="197.4" stroke="#00D084" stroke-width="3" stroke-linecap="round" opacity="0.9"/>
<line x1="250.7" y1="197.4" x2="252.0" y2="197.4" stroke="#00D084" stroke-width="3" stroke-linecap="round" opacity="0.9"/>
<line x1="252.0" y1="197.4" x2="252.0" y2="196.4" stroke="#00D084" stroke-width="3" stroke-linecap="round" opacity="0.9"/>
<circle cx="780.2" cy="434.4" r="2.2" fill="#00D084" opacity="0.85"/>
<circle cx="771.3" cy="429.3" r="2.2" fill="#00D084" opacity="0.85"/>
<circle cx="766.3" cy="428.3" r="2.2" fill="#00D084" opacity="0.85"/>
<circle cx="761.2" cy="427.3" r="2.2" fill="#FFD500" opacity="0.85"/>
<circle cx="756.2" cy="425.3" r="2.2" fill="#FFD500" opacity="0.85"/>
<circle cx="746.1" cy="421.2" r="2.2" fill="#FFD500" opacity="0.85"/>
<circle cx="738.5" cy="418.2" r="2.2" fill="#FFD500" opacity="0.85"/>
<circle cx="729.6" cy="417.1" r="2.2" fill="#FFD500" opacity="0.85"/>
<circle cx="719.5" cy="414.1" r="2.2" fill="#FF8C00" opacity="0.85"/>
<circle cx="713.2" cy="415.1" r="2.2" fill="#FF8C00" opacity="0.85"/>
<circle cx="705.6" cy="415.1" r="2.2" fill="#FF3B30" opacity="0.85"/>
<circle cx="698.0" cy="415.1" r="2.2" fill="#FF3B30" opacity="0.85"/>
<circle cx="693.0" cy="416.1" r="2.2" fill="#FF3B30" opacity="0.85"/>
<circle cx="687.9" cy="417.1" r="2.2" fill="#FF3B30" opacity="0.85"/>
<circle cx="681.6" cy="417.1" r="2.2" fill="#C724B1" opacity="0.85"/>
<circle cx="675.3" cy="417.1" r="2.2" fill="#C724B1" opacity="0.85"/>
<circle cx="672.8" cy="418.2" r="2.2" fill="#C724B1" opacity="0.85"/>
<circle cx="669.0" cy="418.2" r="2.2" fill="#C724B1" opacity="0.85"/>
<circle cx="663.9" cy="419.2" r="2.2" fill="#C724B1" opacity="0.85"/>
<circle cx="661.4" cy="419.2" r="2.2" fill="#C724B1" opacity="0.85"/>
<circle cx="656.3" cy="418.2" r="2.2" fill="#C724B1" opacity="0.85"/>
<circle cx="651.3" cy="417.1" r="2.2" fill="#C724B1" opacity="0.85"/>
<circle cx="647.5" cy="417.1" r="2.2" fill="#C724B1" opacity="0.85"/>
<circle cx="642.4" cy="416.1" r="2.2" fill="#C724B1" opacity="0.85"/>
<circle cx="639.9" cy="416.1" r="2.2" fill="#C724B1" opacity="0.85"/>
<circle cx="636.1" cy="413.1" r="2.2" fill="#C724B1" opacity="0.85"/>
<circle cx="629.8" cy="410.0" r="2.2" fill="#C724B1" opacity="0.85"/>
<circle cx="623.5" cy="409.0" r="2.2" fill="#C724B1" opacity="0.85"/>
<circle cx="615.9" cy="407.0" r="2.2" fill="#C724B1" opacity="0.85"/>
<circle cx="609.6" cy="407.0" r="2.2" fill="#C724B1" opacity="0.85"/>
<circle cx="604.5" cy="404.9" r="2.2" fill="#C724B1" opacity="0.85"/>
<circle cx="598.2" cy="402.9" r="2.2" fill="#C724B1" opacity="0.85"/>
<circle cx="590.6" cy="400.9" r="2.2" fill="#C724B1" opacity="0.85"/>
<circle cx="584.3" cy="397.8" r="2.2" fill="#C724B1" opacity="0.85"/>
<circle cx="579.3" cy="395.8" r="2.2" fill="#C724B1" opacity="0.85"/>
<circle cx="569.1" cy="392.7" r="2.2" fill="#C724B1" opacity="0.85"/>
<circle cx="561.6" cy="389.7" r="2.2" fill="#C724B1" opacity="0.85"/>
<circle cx="551.5" cy="386.6" r="2.2" fill="#C724B1" opacity="0.85"/>
<circle cx="541.3" cy="385.6" r="2.2" fill="#C724B1" opacity="0.85"/>
<circle cx="533.8" cy="383.6" r="2.2" fill="#C724B1" opacity="0.85"/>
<circle cx="524.9" cy="381.5" r="2.2" fill="#C724B1" opacity="0.85"/>
<circle cx="516.1" cy="380.5" r="2.2" fill="#C724B1" opacity="0.85"/>
<circle cx="506.0" cy="378.5" r="2.2" fill="#C724B1" opacity="0.85"/>
<circle cx="497.1" cy="376.4" r="2.2" fill="#C724B1" opacity="0.85"/>
<circle cx="483.2" cy="375.4" r="2.2" fill="#C724B1" opacity="0.85"/>
<circle cx="475.6" cy="375.4" r="2.2" fill="#C724B1" opacity="0.85"/>
<circle cx="465.5" cy="375.4" r="2.2" fill="#C724B1" opacity="0.85"/>
<circle cx="461.7" cy="375.4" r="2.2" fill="#C724B1" opacity="0.85"/>
<circle cx="451.6" cy="374.4" r="2.2" fill="#C724B1" opacity="0.85"/>
<circle cx="444.0" cy="374.4" r="2.2" fill="#C724B1" opacity="0.85"/>
<circle cx="439.0" cy="374.4" r="2.2" fill="#C724B1" opacity="0.85"/>
<circle cx="431.4" cy="372.4" r="2.2" fill="#C724B1" opacity="0.85"/>
<circle cx="423.8" cy="370.3" r="2.2" fill="#C724B1" opacity="0.85"/>
<circle cx="417.5" cy="368.3" r="2.2" fill="#C724B1" opacity="0.85"/>
<circle cx="411.2" cy="366.3" r="2.2" fill="#C724B1" opacity="0.85"/>
<circle cx="406.1" cy="364.2" r="2.2" fill="#C724B1" opacity="0.85"/>
<circle cx="399.8" cy="360.2" r="2.2" fill="#C724B1" opacity="0.85"/>
<circle cx="393.5" cy="359.1" r="2.2" fill="#C724B1" opacity="0.85"/>
<circle cx="385.9" cy="356.1" r="2.2" fill="#C724B1" opacity="0.85"/>
<circle cx="385.9" cy="356.1" r="2.2" fill="#C724B1" opacity="0.85"/>
<circle cx="384.7" cy="355.1" r="2.2" fill="#FF3B30" opacity="0.85"/>
<circle cx="380.9" cy="349.0" r="2.2" fill="#FF3B30" opacity="0.85"/>
<circle cx="377.1" cy="343.9" r="2.2" fill="#FF3B30" opacity="0.85"/>
<circle cx="374.5" cy="338.8" r="2.2" fill="#FF3B30" opacity="0.85"/>
<circle cx="369.5" cy="334.7" r="2.2" fill="#FF3B30" opacity="0.85"/>
<circle cx="365.7" cy="331.7" r="2.2" fill="#FF8C00" opacity="0.85"/>
<circle cx="360.6" cy="324.6" r="2.2" fill="#FF8C00" opacity="0.85"/>
<circle cx="359.4" cy="323.5" r="2.2" fill="#FF8C00" opacity="0.85"/>
<circle cx="358.1" cy="321.5" r="2.2" fill="#FF8C00" opacity="0.85"/>
<circle cx="356.9" cy="320.5" r="2.2" fill="#FF8C00" opacity="0.85"/>
<circle cx="354.3" cy="318.5" r="2.2" fill="#FF8C00" opacity="0.85"/>
<circle cx="351.8" cy="316.4" r="2.2" fill="#FF8C00" opacity="0.85"/>
<circle cx="351.8" cy="315.4" r="2.2" fill="#FF8C00" opacity="0.85"/>
<circle cx="349.3" cy="314.4" r="2.2" fill="#FF8C00" opacity="0.85"/>
<circle cx="348.0" cy="312.3" r="2.2" fill="#FF8C00" opacity="0.85"/>
<circle cx="346.7" cy="311.3" r="2.2" fill="#FF8C00" opacity="0.85"/>
<circle cx="344.2" cy="309.3" r="2.2" fill="#FF3B30" opacity="0.85"/>
<circle cx="343.0" cy="307.3" r="2.2" fill="#FF3B30" opacity="0.85"/>
<circle cx="340.4" cy="305.2" r="2.2" fill="#FF3B30" opacity="0.85"/>
<circle cx="337.9" cy="303.2" r="2.2" fill="#FF3B30" opacity="0.85"/>
<circle cx="337.9" cy="302.2" r="2.2" fill="#FF3B30" opacity="0.85"/>
<circle cx="336.6" cy="300.1" r="2.2" fill="#FF3B30" opacity="0.85"/>
<circle cx="335.4" cy="298.1" r="2.2" fill="#FF3B30" opacity="0.85"/>
<circle cx="334.1" cy="295.1" r="2.2" fill="#FF3B30" opacity="0.85"/>
<circle cx="331.6" cy="293.0" r="2.2" fill="#FF3B30" opacity="0.85"/>
<circle cx="330.3" cy="290.0" r="2.2" fill="#FF3B30" opacity="0.85"/>
<circle cx="329.1" cy="286.9" r="2.2" fill="#FF3B30" opacity="0.85"/>
<circle cx="325.3" cy="284.9" r="2.2" fill="#FF8C00" opacity="0.85"/>
<circle cx="318.9" cy="277.8" r="2.2" fill="#FF8C00" opacity="0.85"/>
<circle cx="318.9" cy="277.8" r="2.2" fill="#FF8C00" opacity="0.85"/>
<circle cx="315.2" cy="275.7" r="2.2" fill="#FF8C00" opacity="0.85"/>
<circle cx="311.4" cy="273.7" r="2.2" fill="#FF8C00" opacity="0.85"/>
<circle cx="307.6" cy="271.7" r="2.2" fill="#FF8C00" opacity="0.85"/>
<circle cx="303.8" cy="269.6" r="2.2" fill="#FF8C00" opacity="0.85"/>
<circle cx="301.3" cy="269.6" r="2.2" fill="#FF8C00" opacity="0.85"/>
<circle cx="298.7" cy="269.6" r="2.2" fill="#FF8C00" opacity="0.85"/>
<circle cx="297.5" cy="267.6" r="2.2" fill="#FF8C00" opacity="0.85"/>
<circle cx="294.9" cy="265.5" r="2.2" fill="#FF8C00" opacity="0.85"/>
<circle cx="292.4" cy="263.5" r="2.2" fill="#FF8C00" opacity="0.85"/>
<circle cx="291.1" cy="261.5" r="2.2" fill="#FF8C00" opacity="0.85"/>
<circle cx="287.4" cy="258.4" r="2.2" fill="#FF8C00" opacity="0.85"/>
<circle cx="283.6" cy="256.4" r="2.2" fill="#FF8C00" opacity="0.85"/>
<circle cx="281.0" cy="255.4" r="2.2" fill="#FF8C00" opacity="0.85"/>
<circle cx="278.5" cy="254.4" r="2.2" fill="#FF8C00" opacity="0.85"/>
<circle cx="276.0" cy="251.3" r="2.2" fill="#FF8C00" opacity="0.85"/>
<circle cx="273.5" cy="248.3" r="2.2" fill="#FFD500" opacity="0.85"/>
<circle cx="272.2" cy="246.2" r="2.2" fill="#FFD500" opacity="0.85"/>
<circle cx="270.9" cy="243.2" r="2.2" fill="#FFD500" opacity="0.85"/>
<circle cx="270.9" cy="242.1" r="2.2" fill="#FFD500" opacity="0.85"/>
<circle cx="267.1" cy="239.1" r="2.2" fill="#FFD500" opacity="0.85"/>
<circle cx="264.6" cy="238.1" r="2.2" fill="#FFD500" opacity="0.85"/>
<circle cx="262.1" cy="235.0" r="2.2" fill="#FFD500" opacity="0.85"/>
<circle cx="259.6" cy="234.0" r="2.2" fill="#FFD500" opacity="0.85"/>
<circle cx="258.3" cy="232.0" r="2.2" fill="#FFD500" opacity="0.85"/>
<circle cx="255.8" cy="229.9" r="2.2" fill="#FFD500" opacity="0.85"/>
<circle cx="254.5" cy="228.9" r="2.2" fill="#00D084" opacity="0.85"/>
<circle cx="253.2" cy="226.9" r="2.2" fill="#00D084" opacity="0.85"/>
<circle cx="252.0" cy="226.9" r="2.2" fill="#00D084" opacity="0.85"/>
<circle cx="250.7" cy="224.9" r="2.2" fill="#00D084" opacity="0.85"/>
<circle cx="248.2" cy="223.8" r="2.2" fill="#00D084" opacity="0.85"/>
<circle cx="248.2" cy="222.8" r="2.2" fill="#00D084" opacity="0.85"/>
<circle cx="248.2" cy="221.8" r="2.2" fill="#00D084" opacity="0.85"/>
<circle cx="248.2" cy="221.8" r="2.2" fill="#00D084" opacity="0.85"/>
<circle cx="246.9" cy="220.8" r="2.2" fill="#00D084" opacity="0.85"/>
<circle cx="245.7" cy="219.8" r="2.2" fill="#00D084" opacity="0.85"/>
<circle cx="244.4" cy="218.7" r="2.2" fill="#00D084" opacity="0.85"/>
<circle cx="245.7" cy="215.7" r="2.2" fill="#00D084" opacity="0.85"/>
<circle cx="244.4" cy="214.7" r="2.2" fill="#00D084" opacity="0.85"/>
<circle cx="245.7" cy="212.6" r="2.2" fill="#00D084" opacity="0.85"/>
<circle cx="245.7" cy="210.6" r="2.2" fill="#00D084" opacity="0.85"/>
<circle cx="245.7" cy="207.6" r="2.2" fill="#00D084" opacity="0.85"/>
<circle cx="245.7" cy="207.6" r="2.2" fill="#00D084" opacity="0.85"/>
<circle cx="248.2" cy="204.5" r="2.2" fill="#00D084" opacity="0.85"/>
<circle cx="248.2" cy="204.5" r="2.2" fill="#00D084" opacity="0.85"/>
<circle cx="248.2" cy="203.5" r="2.2" fill="#00D084" opacity="0.85"/>
<circle cx="249.4" cy="202.5" r="2.2" fill="#00D084" opacity="0.85"/>
<circle cx="249.4" cy="201.5" r="2.2" fill="#00D084" opacity="0.85"/>
<circle cx="250.7" cy="200.4" r="2.2" fill="#00D084" opacity="0.85"/>
<circle cx="250.7" cy="198.4" r="2.2" fill="#00D084" opacity="0.85"/>
<circle cx="250.7" cy="197.4" r="2.2" fill="#00D084" opacity="0.85"/>
<circle cx="252.0" cy="197.4" r="2.2" fill="#00D084" opacity="0.85"/>
<circle cx="252.0" cy="196.4" r="2.2" fill="#00D084" opacity="0.85"/>
<circle cx="252.0" cy="196.4" r="22" fill="url(#glow)"/>
<circle cx="252.0" cy="196.4" r="6" fill="#00D084" stroke="#fff" stroke-width="1.5"/>
<text x="264.0" y="186.4" fill="#fff" font-size="13" font-weight="700" text-anchor="start" paint-order="stroke" stroke="#050912" stroke-width="3">2609 巴威</text>
<text x="264.0" y="201.4" fill="#00D084" font-size="11" font-weight="600" text-anchor="start" paint-order="stroke" stroke="#050912" stroke-width="3">热带风暴 · 18m/s · 990hPa</text>
<text x="46" y="26" fill="#ffffff" font-size="18" font-weight="800">🌀 台风实时路径 · Typhoon Live Tracks</text>
<text x="46" y="45" fill="#8aa0c8" font-size="12">当前活跃台风 2 个 · 数据:中央气象台</text>
<g font-size="10.5">
<rect x="772" y="38" width="10" height="10" rx="2" fill="#3DB2FF"/>
<text x="786" y="46" fill="#c8d3e8">热带低压</text>
<rect x="772" y="53" width="10" height="10" rx="2" fill="#00D084"/>
<text x="786" y="61" fill="#c8d3e8">热带风暴</text>
<rect x="772" y="68" width="10" height="10" rx="2" fill="#FFD500"/>
<text x="786" y="76" fill="#c8d3e8">强热带风暴</text>
<rect x="772" y="83" width="10" height="10" rx="2" fill="#FF8C00"/>
<text x="786" y="91" fill="#c8d3e8">台风</text>
<rect x="772" y="98" width="10" height="10" rx="2" fill="#FF3B30"/>
<text x="786" y="106" fill="#c8d3e8">强台风</text>
<rect x="772" y="113" width="10" height="10" rx="2" fill="#C724B1"/>
<text x="786" y="121" fill="#c8d3e8">超强台风</text>
</g>
<text x="880" y="550" fill="#5f7196" font-size="11" text-anchor="end">更新于 2026-07-13 17:29 (北京时间)</text>
</svg>